<svg width="17" height="17" viewBox="0 0 17 17" fill="none" xmlns="http://www.w3.org/2000/svg">
<path d="M14.0646 6.32446L12.5459 15.3911C12.5221 15.5212 12.4536 15.6389 12.3522 15.7237C12.2507 15.8086 12.1228 15.8553 11.9906 15.8558H5.00927C4.87703 15.8553 4.74912 15.8086 4.6477 15.7237C4.54628 15.6389 4.47774 15.5212 4.45393 15.3911L2.93527 6.32446C2.92219 6.24376 2.92672 6.16119 2.94855 6.08242C2.97039 6.00364 3.00901 5.93052 3.06176 5.86808C3.11452 5.80563 3.18016 5.75534 3.25418 5.72065C3.32821 5.68596 3.40886 5.6677 3.4906 5.66712H13.4979C13.5806 5.66606 13.6626 5.6831 13.738 5.71707C13.8134 5.75104 13.8804 5.8011 13.9344 5.86374C13.9884 5.92638 14.0281 6.00009 14.0506 6.07968C14.0731 6.15927 14.0778 6.24282 14.0646 6.32446ZM14.7333 3.96712C14.7333 4.11741 14.6736 4.26155 14.5673 4.36782C14.461 4.47409 14.3169 4.53379 14.1666 4.53379H2.83327C2.68298 4.53379 2.53885 4.47409 2.43257 4.36782C2.3263 4.26155 2.2666 4.11741 2.2666 3.96712C2.2666 3.81683 2.3263 3.6727 2.43257 3.56643C2.53885 3.46016 2.68298 3.40046 2.83327 3.40046H5.6666V1.70046C5.6666 1.55017 5.7263 1.40603 5.83257 1.29976C5.93885 1.19349 6.08298 1.13379 6.23327 1.13379H10.7666C10.9169 1.13379 11.061 1.19349 11.1673 1.29976C11.2736 1.40603 11.3333 1.55017 11.3333 1.70046V3.40046H14.1666C14.3169 3.40046 14.461 3.46016 14.5673 3.56643C14.6736 3.6727 14.7333 3.81683 14.7333 3.96712ZM10.1999 3.40046V2.26712H6.79993V3.40046H10.1999Z" fill="#021939"/>
</svg>
